# xmcd
#
# Track frame offsets: 
#        150
#        17417
#        32120
#        48292
#        64312
#        81995
#        93992
#        110707
#        127640
#        143825
#        160415
#        175402
#
# Disc length: 2502 seconds
#
# Revision: 2
# Processed by: cddbd v1.5.2PL0 Copyright (c) Steve Scherf et al.
# Submitted via: ExactAudioCopyFreeDBPlugin 1.0
#
DISCID=9b09c40c
DTITLE=Linda Feller - Linda Feller
DYEAR=1990
DGENRE=Country
TTITLE0=Du Bist Das Salz In Meiner Suppe
TTITLE1=Appartment 94
TTITLE2=Engel Lieben Meist Die Falschen
TTITLE3=Fantasie
TTITLE4=Es Fällt Mir Schwer Dir Zu Glauben
TTITLE5=Es Gibt Männer, Soviel Männer
TTITLE6=Das Soll Alles Jetzt Vorbei Sein
TTITLE7=Meine Tränen Wirst Du Nie Mehr Seh'n
TTITLE8=Ich Mag Das Kind In Dir
TTITLE9=Warum Kann Ich Nicht Vergessen
TTITLE10=Ich Habe Dich An Meiner Seite
TTITLE11=Noch Eine Nacht
EXTD=
EXTT0=
EXTT1=
EXTT2=
EXTT3=
EXTT4=
EXTT5=
EXTT6=
EXTT7=
EXTT8=
EXTT9=
EXTT10=
EXTT11=
PLAYORDER=
